<svg width="16" height="11" viewBox="0 0 16 11" fill="none" xmlns="http://www.w3.org/2000/svg">
<path d="M7.99996 0.666656C4.66663 0.666656 1.81996 2.73999 0.666626 5.66666C1.81996 8.59332 4.66663 10.6667 7.99996 10.6667C11.3333 10.6667 14.18 8.59332 15.3333 5.66666C14.18 2.73999 11.3333 0.666656 7.99996 0.666656ZM7.99996 8.99999C6.15996 8.99999 4.66663 7.50666 4.66663 5.66666C4.66663 3.82666 6.15996 2.33332 7.99996 2.33332C9.83996 2.33332 11.3333 3.82666 11.3333 5.66666C11.3333 7.50666 9.83996 8.99999 7.99996 8.99999ZM7.99996 3.66666C6.89329 3.66666 5.99996 4.55999 5.99996 5.66666C5.99996 6.77332 6.89329 7.66666 7.99996 7.66666C9.10663 7.66666 9.99996 6.77332 9.99996 5.66666C9.99996 4.55999 9.10663 3.66666 7.99996 3.66666Z" fill="#6D747A"/>
</svg>
